<svg aria-hidden="true" style="width:0;height:0;position:absolute;overflow:hidden" xmlns="http://www.w3.org/2000/svg"><defs><symbol id="icon-arrow-right" viewBox="0 0 32 32"><path fill="none" stroke="#eac645" stroke-width="3.2" stroke-linecap="round" stroke-linejoin="round" style="stroke:var(--color1,#eac645)" d="M5.333 16h21.334m0 0-8-8m8 8-8 8"/></symbol><symbol id="icon-close" viewBox="0 0 24 24"><path d="M5.293 6.707 10.586 12l-5.293 5.293a.999.999 0 1 0 1.414 1.414L12 13.414l5.293 5.293a.999.999 0 1 0 1.414-1.414L13.414 12l5.293-5.293a.999.999 0 1 0-1.414-1.414L12 10.586 6.707 5.293a.999.999 0 1 0-1.414 1.414z"/></symbol><symbol id="icon-lock" viewBox="0 0 32 32"><path stroke-width="2.286" stroke-linecap="round" stroke-linejoin="round" d="M22.666 14.666v-4a6.666 6.666 0 0 0-13.332 0v4M10.4 28h11.2c2.24 0 3.36 0 4.216-.435a4.03 4.03 0 0 0 1.738-1.726l.011-.022c.435-.856.435-1.976.435-4.216v-.534c0-2.24 0-3.36-.435-4.216a4.03 4.03 0 0 0-1.726-1.738l-.022-.011c-.856-.434-1.976-.434-4.216-.434h-11.2c-2.24 0-3.36 0-4.216.434a4.03 4.03 0 0 0-1.738 1.726l-.011.022c-.435.857-.435 1.977-.435 4.217v.533c0 2.24 0 3.36.435 4.216a4.03 4.03 0 0 0 1.726 1.738l.022.011C7.04 28 8.16 28 10.4 28z"/></symbol><symbol id="icon-mail" viewBox="0 0 32 32"><path stroke-width="2.286" stroke-linecap="round" stroke-linejoin="round" d="m28.666 24-8.857-8m-7.618 0-8.857 8M2.666 9.334l10.887 7.621c.881.617 1.322.926 1.802 1.045.423.106.866.106 1.289 0 .48-.119.921-.427 1.802-1.045l10.887-7.621M9.066 26.666h13.867c2.24 0 3.36 0 4.216-.435a4.03 4.03 0 0 0 1.738-1.726l.011-.022c.434-.855.434-1.976.434-4.216v-8.533c0-2.24 0-3.36-.434-4.217a4.027 4.027 0 0 0-1.726-1.737l-.022-.011c-.857-.435-1.977-.435-4.217-.435H9.068c-2.24 0-3.36 0-4.216.435a4.03 4.03 0 0 0-1.738 1.726l-.01.022c-.434.855-.434 1.975-.434 4.216v8.533c0 2.24 0 3.36.434 4.217A4.027 4.027 0 0 0 4.83 26.22l.022.011c.856.435 1.977.435 4.217.435z"/></symbol><symbol id="icon-menu" viewBox="0 0 24 24"><path d="M17 9H3a1 1 0 0 0 0 2h14a1 1 0 0 0 0-2zm4-4H3a1 1 0 0 0 0 2h18a1 1 0 0 0 0-2zm0 8H3a1 1 0 0 0 0 2h18a1 1 0 0 0 0-2zm-4 4H3a1 1 0 0 0 0 2h14a1 1 0 0 0 0-2z"/></symbol><symbol id="icon-scroll-up" viewBox="0 0 32 32"><path fill="#fff" style="fill:var(--color2,#fff)" d="M4.5 19.6 15.7 8.367c.133-.133.277-.227.433-.283.146-.053.314-.084.489-.084h.011-.001c.177 0 .344.028.5.084.17.064.315.16.433.282L28.799 19.6c.311.311.467.7.467 1.167s-.167.867-.5 1.2c-.292.308-.705.5-1.162.5h-.01c-.457 0-.87-.192-1.161-.499l-.001-.001-9.8-9.8-9.8 9.8c-.311.311-.693.467-1.149.467s-.851-.167-1.184-.5a1.597 1.597 0 0 1-.5-1.162v-.01c0-.457.192-.87.499-1.161l.001-.001z"/></symbol><symbol id="icon-trash" viewBox="0 0 32 32"><path fill="none" stroke="#fff" stroke-width="2.909" stroke-linecap="round" stroke-linejoin="round" style="stroke:var(--color2,#fff)" d="M12 4h8M4 8h24m-2.666 0-.935 14.026c-.141 2.103-.211 3.156-.665 3.953a4.031 4.031 0 0 1-1.707 1.61l-.023.01c-.828.4-1.881.4-3.99.4h-4.026c-2.109 0-3.162 0-3.99-.4a4.028 4.028 0 0 1-1.721-1.601l-.01-.019c-.454-.797-.524-1.85-.665-3.953L6.667 8m6.667 6v6.666M18.666 14v6.666"/></symbol><symbol id="icon-user" viewBox="0 0 32 32"><path fill="#4f2ee8" style="fill:var(--color3,#4f2ee8)" d="M5.334 29.334c.107-5.81 4.841-10.478 10.666-10.478s10.56 4.669 10.666 10.468v.01H5.334zm10.666-12h-.002A7.998 7.998 0 0 1 8 9.336v-.004a7.998 7.998 0 0 1 7.998-7.998h.004A7.998 7.998 0 0 1 24 9.332v.004a7.998 7.998 0 0 1-7.998 7.998H16z"/></symbol><symbol id="icon-paginatin-first" viewBox="0 0 24 24"><path d="M11.707 16.293 7.414 12l4.293-4.293a.999.999 0 1 0-1.414-1.414l-5 5a.999.999 0 0 0 0 1.414l5 5a.999.999 0 1 0 1.414-1.414zm7 0L14.414 12l4.293-4.293a.999.999 0 1 0-1.414-1.414l-5 5a.999.999 0 0 0 0 1.414l5 5a.999.999 0 1 0 1.414-1.414z"/></symbol><symbol id="icon-paginatin-last" viewBox="0 0 24 24"><path d="m13.707 17.707 5-5a.999.999 0 0 0 0-1.414l-5-5a.999.999 0 1 0-1.414 1.414L16.586 12l-4.293 4.293a.999.999 0 1 0 1.414 1.414zm-7 0 5-5a.999.999 0 0 0 0-1.414l-5-5a.999.999 0 1 0-1.414 1.414L9.586 12l-4.293 4.293a.999.999 0 1 0 1.414 1.414z"/></symbol><symbol id="icon-paginatin-prev" viewBox="0 0 24 24"><path d="M15.707 17.293 10.414 12l5.293-5.293a.999.999 0 1 0-1.414-1.414l-6 6a.999.999 0 0 0 0 1.414l6 6a.999.999 0 1 0 1.414-1.414z"/></symbol><symbol id="icon-paginatin-next" viewBox="0 0 24 24"><path d="m9.707 18.707 6-6a.999.999 0 0 0 0-1.414l-6-6a.999.999 0 1 0-1.414 1.414L13.586 12l-5.293 5.293a.999.999 0 1 0 1.414 1.414z"/></symbol><symbol id="icon-shoppingList-nav" viewBox="0 0 32 32"><path d="M25.334 9.333h-4V8a5.332 5.332 0 1 0-10.666 0v1.333h-4a1.335 1.335 0 0 0-1.334 1.334v14.667a4.003 4.003 0 0 0 4 4h13.333a4.003 4.003 0 0 0 4-4V10.667a1.335 1.335 0 0 0-1.334-1.334zM13.334 8a2.668 2.668 0 0 1 5.334 0v1.333h-5.333V8zM24 25.333a1.335 1.335 0 0 1-1.334 1.334H9.333a1.335 1.335 0 0 1-1.334-1.334V12h2.667v1.333a1.335 1.335 0 0 0 2.277.943c.25-.251.39-.589.39-.943V12h5.333v1.333a1.335 1.335 0 0 0 2.277.943c.25-.251.391-.589.391-.943V12h2.667v13.333z"/></symbol><symbol id="bookshelf-logo" viewBox="0 0 176 32"><path d="M22.176 8.532c0-4.731-3.497-7.406-9.545-7.406H0v29.417h13.33c6.089 0 9.998-2.921 9.998-8.599 0-4.402-2.633-6.665-5.719-7.2v-.082c2.427-.823 4.567-2.51 4.567-6.13zm-17.28 4.773V5.282h7.858c2.921 0 4.526 1.44 4.526 4.032s-1.317 3.991-4.814 3.991h-7.57zm0 3.662h8.599c3.086 0 4.937 1.687 4.937 4.69 0 2.756-1.275 4.731-5.472 4.731H4.896v-9.422zM35.89 31.161c-6.583 0-10.574-4.567-10.574-11.108S29.307 8.944 35.89 8.944s10.574 4.567 10.574 11.109-3.991 11.108-10.574 11.108zm0-3.538c4.114 0 6.254-3.25 6.254-7.57 0-4.361-2.139-7.57-6.254-7.57s-6.254 3.209-6.254 7.57c0 4.32 2.139 7.57 6.254 7.57zM58.912 31.161c-6.583 0-10.574-4.567-10.574-11.108S52.329 8.944 58.912 8.944s10.574 4.567 10.574 11.109-3.991 11.108-10.574 11.108zm0-3.538c4.114 0 6.254-3.25 6.254-7.57 0-4.361-2.139-7.57-6.254-7.57s-6.254 3.209-6.254 7.57c0 4.32 2.139 7.57 6.254 7.57zM72.472 1.127v29.417h4.32v-7.611l2.921-2.756 6.624 10.368h5.184l-8.846-13.207 7.982-7.817H85.35l-8.558 8.434V1.128h-4.32zM101.935 17.831c-3.045-.699-5.39-.864-5.39-3.003 0-1.481 1.399-2.469 3.991-2.469 3.374 0 4.197 1.687 4.485 3.333h4.197c-.288-3.662-3.003-6.747-8.722-6.747-5.266 0-8.311 2.757-8.311 6.213 0 4.773 4.526 5.431 7.858 6.213 3.086.741 5.595.946 5.595 3.579 0 1.317-1.275 2.798-4.279 2.798-4.443 0-5.431-1.934-5.637-4.197h-4.197c.206 4.443 3.127 7.611 9.915 7.611 5.102 0 8.558-2.51 8.558-6.542 0-5.019-4.197-5.883-8.064-6.788zM124.123 8.944c-3.538 0-5.719 1.646-6.83 3.291h-.082V1.126h-4.32v29.417h4.32V17.748c0-3.127 2.263-5.143 5.431-5.143 3.003 0 4.197 1.81 4.197 4.649v13.289h4.361V16.02c0-4.814-3.086-7.077-7.077-7.077zM144.448 27.623c-3.826 0-6.089-2.921-6.089-6.459h16.128c0-7.488-3.333-12.219-10.121-12.219-6.336 0-10.327 4.279-10.327 11.109 0 6.583 3.991 11.108 10.533 11.108 5.39 0 8.517-3.045 9.586-7.035h-4.32c-.37 1.275-1.81 3.497-5.39 3.497zm-.082-15.264c3.497 0 5.801 2.345 5.801 5.595h-11.808c0-3.25 2.51-5.595 6.007-5.595zM157.531 1.127v29.417h4.361V1.127h-4.361zM176.003 4.665V1.127a15.12 15.12 0 0 0-2.88-.288c-3.456 0-5.349 1.563-5.349 6.007V9.52h-3.003v3.538h3.003v17.486h4.361V13.058h3.867V9.52h-3.867V7.216c0-2.386 1.07-2.674 3.867-2.551z"/></symbol></defs></svg>